<svg width="127" height="112" viewBox="0 0 127 112" fill="none" xmlns="http://www.w3.org/2000/svg">
<path fill-rule="evenodd" clip-rule="evenodd" d="M126.219 20.4135L115.902 65.9135C115.36 68.3038 113.24 70 110.795 70H46.8209L48.2492 77H106.827C110.188 77 112.679 80.1283 111.934 83.4135L110.73 88.7239C114.809 90.7086 117.622 94.8999 117.622 99.75C117.622 106.516 112.15 112 105.401 112C98.6512 112 93.1797 106.516 93.1797 99.75C93.1797 96.3213 94.5866 93.2236 96.851 91H51.0991C53.3637 93.2236 54.7707 96.3213 54.7707 99.75C54.7707 106.516 49.2991 112 42.5496 112C35.8001 112 30.3286 106.516 30.3286 99.75C30.3286 95.2048 32.8001 91.2406 36.4677 89.1264L21.1373 14H5.88652C2.99384 14 0.648926 11.6495 0.648926 8.75V5.25C0.648926 2.35047 2.99384 0 5.88652 0H28.2617C30.7498 0 32.8946 1.75459 33.393 4.19781L35.3933 14H121.111C124.472 14 126.963 17.1283 126.219 20.4135ZM80.4789 27.0215C80.4789 27.2222 80.4699 27.4209 80.4522 27.617H80.4787L78.0957 44.8936H78.0535C77.7644 46.9146 76.0264 48.4681 73.9255 48.4681C71.8246 48.4681 70.0866 46.9146 69.7975 44.8936H69.7553L67.3723 27.617H67.3992C67.3816 27.4209 67.3725 27.2222 67.3725 27.0215C67.3725 23.4022 70.3065 20.4683 73.9257 20.4683C77.5449 20.4683 80.4789 23.4022 80.4789 27.0215ZM80.4787 59.1915C80.4787 62.8107 77.5447 65.7447 73.9255 65.7447C70.3063 65.7447 67.3723 62.8107 67.3723 59.1915C67.3723 55.5723 70.3063 52.6383 73.9255 52.6383C77.5447 52.6383 80.4787 55.5723 80.4787 59.1915Z" fill="#C2C4C9"/>
</svg>
